<?xml version="1.0" standalone="no"?>
<!DOCTYPE svg PUBLIC "-//W3C//DTD SVG 20010904//EN"
 "http://www.w3.org/TR/2001/REC-SVG-20010904/DTD/svg10.dtd">
<svg version="1.0" xmlns="http://www.w3.org/2000/svg"
 width="72.000000pt" height="72.000000pt" viewBox="0 0 72.000000 72.000000"
 preserveAspectRatio="xMidYMid meet">

<g transform="translate(0.000000,72.000000) scale(0.100000,-0.100000)"
fill="#000000" stroke="none">
<path d="M340 610 c1 -14 7 -34 15 -44 8 -11 15 -29 16 -40 0 -21 1 -21 11 1
8 17 5 30 -16 65 -23 37 -26 40 -26 18z"/>
<path d="M270 602 c0 -10 10 -27 21 -38 12 -10 25 -28 30 -39 7 -19 8 -18 8 4
1 13 -12 39 -29 58 -24 27 -30 30 -30 15z"/>
<path d="M435 607 c-4 -10 -5 -32 -1 -49 3 -18 1 -37 -5 -44 -9 -11 -9 -14 0
-14 21 0 32 43 23 85 -7 31 -11 36 -17 22z"/>
<path d="M180 563 c0 -15 28 -43 42 -43 6 0 20 -7 30 -17 16 -14 18 -14 18 -1
0 19 -17 33 -50 43 -14 4 -28 13 -32 19 -6 8 -8 8 -8 -1z"/>
<path d="M530 525 c-20 -24 -48 -85 -40 -85 12 0 40 30 40 43 0 6 10 21 22 34
17 18 18 23 6 23 -9 0 -21 -7 -28 -15z"/>
<path d="M304 470 c-56 -22 -86 -103 -60 -163 52 -125 239 -87 239 48 0 91
-92 150 -179 115z"/>
<path d="M539 424 c-32 -34 -33 -36 -9 -29 14 4 34 18 45 30 11 13 27 25 35
28 9 3 4 6 -11 6 -17 1 -37 -11 -60 -35z"/>
<path d="M125 440 c-49 -8 -30 -18 43 -22 52 -3 53 -3 31 15 -11 9 -24 16 -28
16 -3 -1 -24 -5 -46 -9z"/>
<path d="M542 360 c-26 -14 -29 -19 -16 -24 9 -4 27 0 40 9 13 8 35 15 49 15
15 0 24 4 20 10 -9 15 -56 10 -93 -10z"/>
<path d="M120 347 c-27 -17 -31 -23 -17 -25 10 -2 29 3 42 12 13 9 31 16 40
16 9 0 13 5 10 10 -10 16 -37 11 -75 -13z"/>
<path d="M134 284 c-40 -44 -18 -44 36 1 37 31 39 35 18 34 -13 0 -36 -15 -54
-35z"/>
<path d="M510 286 c13 -13 111 -14 107 -1 -2 6 -29 10 -60 11 -37 0 -54 -3
-47 -10z"/>
<path d="M197 242 c-10 -10 -17 -25 -17 -32 0 -7 -7 -22 -17 -32 -9 -10 -11
-18 -5 -18 12 0 52 48 52 63 0 5 8 16 18 23 15 12 15 13 1 14 -9 0 -23 -8 -32
-18z"/>
<path d="M452 230 c7 -21 98 -83 98 -67 0 17 -32 47 -50 47 -7 0 -22 8 -33 18
-15 13 -19 13 -15 2z"/>
<path d="M293 208 c-11 -19 -10 -109 2 -105 8 3 16 117 8 117 -1 0 -5 -6 -10
-12z"/>
<path d="M400 203 c0 -6 16 -30 35 -53 26 -32 35 -37 35 -23 0 11 -16 34 -35
53 -19 19 -35 29 -35 23z"/>
<path d="M350 180 c0 -14 7 -36 16 -48 9 -13 14 -33 11 -45 -6 -21 -6 -21 8
-3 19 26 19 26 -10 77 -22 39 -25 41 -25 19z"/>
</g>
</svg>
